<svg id="Calque_1" data-name="Calque 1" xmlns="http://www.w3.org/2000/svg" viewBox="0 0 177.37 141.42"><defs><style>.cls-1{fill:#331f16;}.cls-2{fill:#96c642;}.cls-3{fill:#bce877;}.cls-4{fill:#fff;}.cls-5{fill:#442c1f;}.cls-6{fill:#5b3e2b;}</style></defs><title>Papillon 2</title><path class="cls-1" d="M103.7,84a88.68,88.68,0,0,1,1.72-14.6c2-9.65,5.4-16.27,10.53-20.18a12.13,12.13,0,0,1,6.7-2.73,6.63,6.63,0,0,1,6,3c1.18,2,.63,4.89-1.18,6l.66,1.07c2.4-1.47,3.14-5.08,1.6-7.69a7.87,7.87,0,0,0-7.14-3.58,13.12,13.12,0,0,0-7.41,3c-5.38,4.14-9,11-11,20.93a90,90,0,0,0-1.75,14.81Z" transform="translate(-12.77 -28)"/><path class="cls-1" d="M129.63,53.66a2.2,2.2,0,1,1-3.11,0A2.21,2.21,0,0,1,129.63,53.66Z" transform="translate(-12.77 -28)"/><path class="cls-1" d="M99.22,84a89.77,89.77,0,0,0-1.72-14.6c-2-9.65-5.41-16.27-10.54-20.18a12.13,12.13,0,0,0-6.69-2.73,6.64,6.64,0,0,0-6,3c-1.18,2-.62,4.89,1.19,6l-.67,1.07c-2.4-1.47-3.13-5.08-1.6-7.69a7.89,7.89,0,0,1,7.15-3.58,13.12,13.12,0,0,1,7.4,3c5.38,4.14,9,11,11,20.93a91.1,91.1,0,0,1,1.74,14.81Z" transform="translate(-12.77 -28)"/><path class="cls-1" d="M73.28,53.66a2.2,2.2,0,1,0,3.11,0A2.21,2.21,0,0,0,73.28,53.66Z" transform="translate(-12.77 -28)"/><path class="cls-2" d="M155.13,108.8c12.42,6.18,17.32,20.23,12.16,34.88-3.32,9.42-11.62,19.71-22.64,23.84-8.12,3-16.27,2.18-22-.88s-9.45-8.07-12.49-13.32c-4.59-7.95-13.56-29.06-5.28-43.78C104.46,96.73,144.58,103.55,155.13,108.8Z" transform="translate(-12.77 -28)"/><path class="cls-3" d="M144.67,110.1c9.35,4.64,13,15.21,9.15,26.24-2.5,7.08-8.74,14.82-17,17.93a20.45,20.45,0,0,1-16.58-.66c-4.33-2.31-7.11-6.08-9.4-10-3.46-6-10.21-21.85-4-32.93C106.55,101,136.73,106.15,144.67,110.1Z" transform="translate(-12.77 -28)"/><path class="cls-2" d="M146.26,133.16c.18-2.25-8.3-4.86-17.95-9.84s-17.15-10.33-18.39-8.63c-.19.23-.14.69,0,1.23-2.35-2.18-4-3.4-4.64-2.83s-.18,2.32,1,5c-1.14-1.37-2-2.12-2.61-1.82-1.65.81.54,11.17,7.2,21.33s14.5,15.29,15.57,13.6-4.29-9.09-10.33-18.44c-.58-.87-1.13-1.72-1.67-2.57a59.31,59.31,0,0,0,4.57,4.74c10.19,9.47,20.59,12.44,21.19,10.46s-7.07-7.5-15.91-15.59c.46.26.88.54,1.36.78C136.46,136.08,146.18,135.26,146.26,133.16Z" transform="translate(-12.77 -28)"/><path class="cls-2" d="M150.18,42.46c9.21-8.62,22.07-17.75,31.36-13.29,8.31,4,9.37,17.1,8.21,27.11-2.61,22.33,6.18,44.11-13.95,63.48-22.15,21.32-73.05-6.05-73.05-6.05V92.91S134,57.58,150.18,42.46Z" transform="translate(-12.77 -28)"/><path class="cls-3" d="M148.42,50.41c4.41-4.46,9.08-9,14.72-10.52s12.49,1,14.72,7.32c1.57,4.48.51,9.71-1.39,14s-4.58,8-6.54,12.32c-2.73,5.94-3.94,12.67-5.72,19.11-2.08,7.48-5.11,14.87-10.18,19.94-5.49,5.48-12.88,7.7-20,7.65s-14.2-2.19-21.07-4.57c-3.34-1.15-6.83-2.48-9.21-5.49-6.9-8.7,3.8-15.75,8.41-21q11.3-12.78,23-25.06Q141.7,57.2,148.42,50.41Z" transform="translate(-12.77 -28)"/><path class="cls-2" d="M176.64,91.35c-4.32-.21-7.62-6-5.92-12.46s7.17-9,10.82-6.25a11.72,11.72,0,0,1,4.2,11.82A9.15,9.15,0,0,1,176.64,91.35Z" transform="translate(-12.77 -28)"/><path class="cls-4" d="M177.72,85.72c-2.56-.12-4.52-3.54-3.51-7.4s4.25-5.34,6.42-3.71a7,7,0,0,1,2.5,7A5.44,5.44,0,0,1,177.72,85.72Z" transform="translate(-12.77 -28)"/><path class="cls-4" d="M154.4,66.34c-4.38-4.16-4.11-13.19,1.85-18.42s13.3-2.86,15.34,3.35.38,13-3.23,16.19S158.8,70.57,154.4,66.34Z" transform="translate(-12.77 -28)"/><path class="cls-2" d="M157.74,60.54c-2.54-2.42-2.38-7.66,1.08-10.7s7.72-1.66,8.9,1.95.22,7.52-1.87,9.4S160.3,63,157.74,60.54Z" transform="translate(-12.77 -28)"/><path class="cls-2" d="M159.79,115.86c-.5-2.42.32-4.92,1.43-7.24a28,28,0,0,1,4.44-6.54,24.45,24.45,0,0,1,5.77-4.85c2-1.15,4.17-2,6.17-1.21s3.34,3.2,3.28,6.94a19.37,19.37,0,0,1-5,12.15c-3.31,3.68-7.43,5.32-10.52,5.11S160.27,118.22,159.79,115.86Z" transform="translate(-12.77 -28)"/><path class="cls-3" d="M166.57,109.6a6.59,6.59,0,0,1,.81-4.09,15.76,15.76,0,0,1,2.51-3.71,13.7,13.7,0,0,1,3.27-2.74,4.14,4.14,0,0,1,3.49-.69c1.1.41,1.89,1.81,1.86,3.93a11,11,0,0,1-2.81,6.88,7.83,7.83,0,0,1-6,2.89A3.18,3.18,0,0,1,166.57,109.6Z" transform="translate(-12.77 -28)"/><path class="cls-2" d="M147.05,62.52c-.37-.58-8.38,6-17.9,14.69S112.21,93.41,112.59,94s8.38-6,17.9-14.69S147.43,63.09,147.05,62.52Z" transform="translate(-12.77 -28)"/><path class="cls-2" d="M115.11,95.35c.22.68,8.59-2.58,18.69-7.28s18.11-9,17.89-9.73S143.1,80.92,133,85.62,114.89,94.68,115.11,95.35Z" transform="translate(-12.77 -28)"/><path class="cls-2" d="M133.26,97.05c-10.65.92-19.26,2.25-19.21,3s8.72.57,19.37-.35,19.26-2.25,19.22-3S143.92,96.13,133.26,97.05Z" transform="translate(-12.77 -28)"/><path class="cls-2" d="M114.54,105c0,.73,7.27,1.39,16.25,1.48s16.27-.43,16.28-1.16-7.28-1.38-16.26-1.47S114.54,104.26,114.54,105Z" transform="translate(-12.77 -28)"/><path class="cls-2" d="M125.66,110.36c-6.56-1.51-12-2.17-12.09-1.45s5.11,2.52,11.67,4,12,2.16,12.08,1.45S132.22,111.88,125.66,110.36Z" transform="translate(-12.77 -28)"/><path class="cls-2" d="M181.4,67.6c-1.54-.07-2.72-2.13-2.12-4.44s2.56-3.21,3.86-2.23a4.19,4.19,0,0,1,1.5,4.22A3.26,3.26,0,0,1,181.4,67.6Z" transform="translate(-12.77 -28)"/><path class="cls-2" d="M47.78,108.8C35.36,115,30.46,129,35.62,143.68c3.32,9.42,11.62,19.71,22.64,23.84,8.12,3,16.28,2.18,22-.88s9.45-8.07,12.49-13.32c4.6-7.95,13.57-29.06,5.28-43.78C98.45,96.73,58.34,103.55,47.78,108.8Z" transform="translate(-12.77 -28)"/><path class="cls-3" d="M58.24,110.1c-9.34,4.64-13,15.21-9.15,26.24,2.5,7.08,8.74,14.82,17,17.93a20.44,20.44,0,0,0,16.58-.66c4.34-2.31,7.12-6.08,9.4-10,3.46-6,10.21-21.85,4-32.93C96.36,101,66.18,106.15,58.24,110.1Z" transform="translate(-12.77 -28)"/><path class="cls-2" d="M56.65,133.16c-.18-2.25,8.3-4.86,17.95-9.84S91.76,113,93,114.69c.19.23.15.69,0,1.23,2.35-2.18,4-3.4,4.64-2.83s.18,2.32-1,5c1.14-1.37,2-2.12,2.6-1.82,1.65.81-.54,11.17-7.19,21.33s-14.5,15.29-15.57,13.6,4.28-9.09,10.32-18.44c.58-.87,1.13-1.72,1.68-2.57a61.29,61.29,0,0,1-4.58,4.74c-10.19,9.47-20.59,12.44-21.19,10.46s7.07-7.5,15.91-15.59c-.46.26-.88.54-1.36.78C66.45,136.08,56.73,135.26,56.65,133.16Z" transform="translate(-12.77 -28)"/><path class="cls-2" d="M52.73,42.46c-9.21-8.62-22.07-17.75-31.36-13.29-8.31,4-9.37,17.1-8.21,27.11,2.61,22.33-6.18,44.11,14,63.48,22.16,21.32,73.05-6.05,73.05-6.05V92.91S68.87,57.58,52.73,42.46Z" transform="translate(-12.77 -28)"/><path class="cls-3" d="M54.49,50.41c-4.41-4.46-9.08-9-14.72-10.52s-12.48,1-14.72,7.32c-1.57,4.48-.51,9.71,1.39,14S31,69.27,33,73.54c2.73,5.94,3.94,12.67,5.72,19.11,2.08,7.48,5.12,14.87,10.19,19.94,5.48,5.48,12.87,7.7,20,7.65s14.19-2.19,21.07-4.57c3.34-1.15,6.82-2.48,9.21-5.49,6.89-8.7-3.81-15.75-8.41-21q-11.3-12.78-23-25.06Q61.22,57.2,54.49,50.41Z" transform="translate(-12.77 -28)"/><path class="cls-2" d="M26.28,91.35c4.32-.21,7.61-6,5.91-12.46s-7.16-9-10.82-6.25a11.74,11.74,0,0,0-4.2,11.82A9.16,9.16,0,0,0,26.28,91.35Z" transform="translate(-12.77 -28)"/><path class="cls-4" d="M25.19,85.72c2.57-.12,4.52-3.54,3.52-7.4S24.45,73,22.28,74.61a7,7,0,0,0-2.49,7A5.42,5.42,0,0,0,25.19,85.72Z" transform="translate(-12.77 -28)"/><path class="cls-4" d="M48.51,66.34c4.38-4.16,4.11-13.19-1.85-18.42s-13.29-2.86-15.34,3.35-.38,13,3.24,16.19S44.11,70.57,48.51,66.34Z" transform="translate(-12.77 -28)"/><path class="cls-2" d="M45.17,60.54c2.54-2.42,2.38-7.66-1.08-10.7s-7.72-1.66-8.9,1.95-.22,7.52,1.88,9.4S42.61,63,45.17,60.54Z" transform="translate(-12.77 -28)"/><path class="cls-2" d="M43.12,115.86c.5-2.42-.32-4.92-1.42-7.24a28.35,28.35,0,0,0-4.45-6.54,24.25,24.25,0,0,0-5.77-4.85c-2-1.15-4.17-2-6.17-1.21S22,99.22,22,103a19.42,19.42,0,0,0,5,12.15c3.31,3.68,7.43,5.32,10.52,5.11S42.65,118.22,43.12,115.86Z" transform="translate(-12.77 -28)"/><path class="cls-3" d="M36.34,109.6a6.58,6.58,0,0,0-.8-4.09A16.11,16.11,0,0,0,33,101.8a13.7,13.7,0,0,0-3.27-2.74,4.14,4.14,0,0,0-3.49-.69c-1.1.41-1.89,1.81-1.86,3.93a11,11,0,0,0,2.82,6.88,7.8,7.8,0,0,0,6,2.89A3.17,3.17,0,0,0,36.34,109.6Z" transform="translate(-12.77 -28)"/><path class="cls-2" d="M55.86,62.52c.37-.58,8.39,6,17.91,14.69S90.7,93.41,90.33,94,81.94,88,72.42,79.3,55.49,63.09,55.86,62.52Z" transform="translate(-12.77 -28)"/><path class="cls-2" d="M87.8,95.35c-.22.68-8.59-2.58-18.69-7.28S51,79,51.22,78.34s8.59,2.58,18.69,7.28S88,94.68,87.8,95.35Z" transform="translate(-12.77 -28)"/><path class="cls-2" d="M69.65,97.05c10.66.92,19.26,2.25,19.21,3s-8.71.57-19.37-.35-19.26-2.25-19.21-3S59,96.13,69.65,97.05Z" transform="translate(-12.77 -28)"/><path class="cls-2" d="M88.37,105c0,.73-7.27,1.39-16.25,1.48S55.85,106,55.85,105.3s7.27-1.38,16.25-1.47S88.37,104.26,88.37,105Z" transform="translate(-12.77 -28)"/><path class="cls-2" d="M77.25,110.36c6.56-1.51,12-2.17,12.09-1.45s-5.11,2.52-11.67,4-12,2.16-12.08,1.45S70.69,111.88,77.25,110.36Z" transform="translate(-12.77 -28)"/><path class="cls-2" d="M21.52,67.6c1.54-.07,2.71-2.13,2.11-4.44S21.07,60,19.77,60.93a4.19,4.19,0,0,0-1.5,4.22A3.26,3.26,0,0,0,21.52,67.6Z" transform="translate(-12.77 -28)"/><circle class="cls-5" cx="88.68" cy="56.74" r="5.3"/><path class="cls-1" d="M106.1,115.72c0,8.21-.53,32.65-4.64,32.65s-4.65-24.44-4.65-32.65,2.08-9.19,4.65-9.19S106.1,107.51,106.1,115.72Z" transform="translate(-12.77 -28)"/><path class="cls-6" d="M110.43,98.91c0,8.07-4,14.61-9,14.61s-9-6.54-9-14.61,4-10.46,9-10.46S110.43,90.85,110.43,98.91Z" transform="translate(-12.77 -28)"/></svg>