<svg id="Calque_1" data-name="Calque 1" xmlns="http://www.w3.org/2000/svg" viewBox="0 0 441.68 231.18"><defs><style>.cls-1{fill:#8c6239;}.cls-1,.cls-2,.cls-3,.cls-4,.cls-5,.cls-6,.cls-7,.cls-8{stroke:#000;stroke-miterlimit:10;}.cls-1,.cls-2,.cls-3,.cls-4,.cls-5,.cls-6,.cls-7{stroke-width:0.5px;}.cls-2{fill:#603813;}.cls-3{fill:#fbb03b;}.cls-4{fill:#fff;}.cls-5{fill:#ff7bac;}.cls-7,.cls-8{fill:none;}</style></defs><title>Vautour</title><g id="Aile"><path id="Main" class="cls-1" d="M272.86,262.2l-17.19.14-18.37.15-15.34.13-19.07.15h-1.26l-17.39.15h-1.38l-4.64,0h0l-2.81,0s-.18.49-.58,1.36l-.62,1.29c-4.34,8.56-21.44,35.25-68.3,41.37,0,0-22.21,23.87,28.76,15.1,0,0-39.86,33.13,29.27,11.69,0,0-19.68,34.1,35.33-1.46,0,0-4.54,35.51,42.89-26.58l3-4.25-6.83-2.87a28.42,28.42,0,0,0,7.07-.83,1.1,1.1,0,0,0,0,.18l.88,1.9.58-.82,20.88-29.54.34-.49,2.35-3.32.3-.43,2.19-3.1Zm-51,31.93a28.51,28.51,0,0,0,8.63,1.7l.12.17,3.84,6.5Z" transform="translate(-31.75 -137.15)"/><path id="Ajustemeent" class="cls-1" d="M272.94,262.2s-28.82-3.52-41.38-13.91c0,0-58,32.08-46,11.71l-10.71,4.36" transform="translate(-31.75 -137.15)"/></g><path id="Corps" class="cls-2" d="M75.84,162.58c1.74-2.57,5.24-5.19,11.62-7.26a2.21,2.21,0,0,1,.85-.43h0a3.08,3.08,0,0,1,2.23.34,0,0,0,0,1,0,0c1.91,1,3.49,3.33,2.65,4.57h0a1.49,1.49,0,0,1-.38.37c-.22.15-.08,0,.38-.37h0c4.3-3.36,35.53-24.33,47.84,17.43,0,0,5-4,9.49.44,2.73,2.73,5.24,8.66,6.19,20.66h0c.11,1.39.2,2.86.26,4.42q.09,1.74.12,3.63h0q0,1.74,0,3.6c0,.39,0,.79,0,1.19,0,.21,0,.42,0,.63,0,0,0-.24-.06-.67s0-.72-.08-1.2c0-.7-.08-1.54-.11-2.48h0c0-1.45,0-3.1.11-4.7a16.94,16.94,0,0,1,1-5h0c.76-1.78,2-2.64,4-1.5,4.55,2.6-3-11.07-2.53-20.88,0-.32.05-.64.08-1,.51-4.44,2.91-7.91,9.27-8.36,0,0,9.61-21.63,17.94-19.12a5.42,5.42,0,0,1,1.93,1.05,7,7,0,0,1,.59.53s14.47-12.19,24.89-8.62a11.18,11.18,0,0,1,3.85,2.29s48.23-21.93,111.56,34.59c0,0,32.16,35.56,114.49-16.57,0,0,8.77,1.46,8.28,6.33,0,0,14.13-3.89,16.08,14.62,0,0,11.2,33.13-21.93,35.08l-.15.34c-1.82,3.95-20.52,40.27-76.82-.34L360.28,223s4.38,4.87,1,7.3,56.51,13.64,42.38,41.41c0,0,21.44,16.08,11.7,23.39,0,0,49.2,24.35,26.3,33.12,0,0,82.33,65.77-19,28.26C380.7,341,348.36,322.8,324.86,306.81h0a319.38,319.38,0,0,1-39-30.91l-.73-.69-.09-.09c-4.2-4-6.9-6.87-8.17-8.26l-.05-.06-.78-.88h-.11c-.31,0-1.27-.11-2.75-.29h0c-.68-.08-1.48-.18-2.37-.31a142.62,142.62,0,0,1-14.22-2.74h0l-.85-.22c-9.22-2.34-19.75-6.15-27.51-12.21l-.39-.3s-6.29,3.59-14.21,7.67l-.06,0c-3.36,1.74-7,3.56-10.61,5.24h0l-2.21,1c-11.94,5.4-22.26,8.55-17.26.38.21-.33.44-.69.7-1.06h0l.13-.17c.2-.3.42-.6.66-.92l-.49.23c-.36.17-.89.42-1.55.7-.92.4-2.07.87-3.34,1.32h0a29.9,29.9,0,0,1-5.31,1.39l-.64.08c-6.46.66-10-3.53,8.54-26.6l0,0h0a72.24,72.24,0,0,1-8,3h0A62.06,62.06,0,0,1,160.77,245h0a29.92,29.92,0,0,1-10.48-.77h-.06a16.44,16.44,0,0,1-7.71-4.59l-2.54.08h0l-5.28.14h0l-2.4.05c-6.34.14-14.91.28-23.7.27h0c-8.61,0-17.41-.16-24.49-.59h0a86.22,86.22,0,0,1-10.76-1.17" transform="translate(-31.75 -137.15)"/><path class="cls-3" d="M326.88,309s-16.08,18-25.82,3.9c-2.45-3.55-3.39-6.21-3.43-8.2-.1-5.93,7.81-5.93,7.81-5.93l-.25-.33c-1.56-2-9.58-11.95-10.46-8.44-.75,3-.08,13.27-9,17.81-2.79,1.43-6.51,2.28-11.52,2.17a2,2,0,0,1-.81.15l-.51-.05c-1.48-.24-4-1.71-6.77-7.95-.06-.14-.13-.28-.19-.43a8.38,8.38,0,0,1-1.37.93,12.4,12.4,0,0,1-7.44,1.54h0c-2.92-.3-6.42-1.64-10.28-5.08-.45-.4-.9-.83-1.36-1.29l-.12,0a28.42,28.42,0,0,1-7.07.83c-2.81-.06-5.75-.71-7.42-2.81h-.37a28.51,28.51,0,0,1-8.63-1.7c-4.71-1.75-9.83-5.29-11.46-12.42,0,0,1.54-12.94,10.2-18.36a12.87,12.87,0,0,1,1.31-.73c3.78-1.88,8.77-2.37,15.34-.13.41.14.78.3,1.21.47h.06l.62.24H240c3,0,13.19.52,16.17,6.22a.75.75,0,0,1,.07.12s6.86-1.37,11.52,0a5.92,5.92,0,0,1,3.58,2.43s.22,0,.66,0a20.85,20.85,0,0,1,3.54.41l.12,0a39.3,39.3,0,0,1,5.92,1.72h0c1.29.48,2.7,1.06,4.22,1.77,9.08,4.23,22.26,12.95,39,30.91h0C325.53,307.52,326.2,308.25,326.88,309Z" transform="translate(-31.75 -137.15)"/><path id="Collier" class="cls-4" d="M156.4,193.61h4.84s-8.77-29.79,7.31-30.28c0,0,12.11-26.69,19.45-14.8,0,0,29.75-25,27.32,0,0,0,10.23-5.17-2.44,8,0,0,21.44-3.94,25.33,9s-15.59,11-15.59,11,18.52,5,20.47,3.45,6.33,11.36-13.64,22.22c0,0,7.79,1.31,11.2,0s5.36,23-25.33,23c0,0,16.56,8.28-4.87,10.72,0,0,20.72,20.08-3.9,10.23-2.44-1-17.12-5.85-18.55-15.1,0,0,2.47,16.56-9.22,5.36,0,0,18-16.46,14.13-36.49a22.82,22.82,0,0,1,4.38-6.79c2.93-3-3.89-17.62-11.69-14.21s-9.74,17.54-12.18,30.2-19.49,0-19.49,0S158.38,196.6,156.4,193.61Z" transform="translate(-31.75 -137.15)"/><path id="Cou" class="cls-5" d="M199.19,167.33s11.24,14.14,0,24.42c0,0,1.25,74.21-66.19,47.42,0,0,20-31.92,17.48-33s16.24,12.65,23.11,0S171.72,158.81,199.19,167.33Z" transform="translate(-31.75 -137.15)"/><path id="Tête" class="cls-5" d="M124.17,246.53a32.26,32.26,0,0,0,15.74-6.82h0c.7-.57,1.4-1.18,2.07-1.84l13.8-26.41s.21-.59.51-1.65c0-.14.07-.31.12-.48a.47.47,0,0,0,0-.16,47.55,47.55,0,0,0,1.5-9.84c0-.85,0-1.73,0-2.61a0,0,0,0,0,0,0c0-1-.09-2-.19-3.06v0a30.18,30.18,0,0,0-1.44-6.7,24.28,24.28,0,0,0-7.51-11.07,28,28,0,0,0-6.85-4.21s-13.79-38.49-50.26-16.08h0a17.18,17.18,0,0,0-2.95-.59c-4.18-.52-11.51,0-13.33,9.3,0,0,0,0,0,0a21,21,0,0,0-.42,3.94l0,.14-2.93,11s-7.88,2.53-6.88,5c.28.71-1.14.16-3.64-.14-6.13-.76-18.73,0-28.35,24.36,0,0,0,0,0,0-.09.19-.16.4-.25.59a.39.39,0,0,1,.09.07" transform="translate(-31.75 -137.15)"/><path id="Bec" class="cls-3" d="M61.19,184.15s-20.67-7.69-27.87,23.58,17.29,41.51,22.58,43.56c0,0,3.84-17.42,10.57-15.89s33.16,20,46.13,15.89,32.2-17.42,32.68-36.9,0-24.6,0-24.6-12-19-29.31,0a22.07,22.07,0,0,0-4.81,23.57s-11,6.67-13.45,0-17.3-26.65-24-25.63S69.35,189.27,61.19,184.15Z" transform="translate(-31.75 -137.15)"/><path id="Bouche" class="cls-4" d="M97.42,230.78c31.67-12.67,21.93-30.36,21.93-30.36,5.35-17.2,17.53-12,17.53-12s15.11,27.28-5.84,42-41.9,7.74-47.59,2.38A8.43,8.43,0,0,0,80,230.77C88.24,230.43,97.42,230.78,97.42,230.78Z" transform="translate(-31.75 -137.15)"/><g id="Yeux"><path class="cls-4" d="M81.35,166.25s-10.23,8.29-7.8,21.93c0,0,6.82,1.46,7.8,4.87s6.33-9.75,5.36-13.4S85.73,167.72,81.35,166.25Z" transform="translate(-31.75 -137.15)"/><path class="cls-4" d="M91.76,179.4s9.07,2.67,12.37-5S114,192,109.07,194.66s-10.3,10.35-17.31,0C91.76,194.66,88.06,189.78,91.76,179.4Z" transform="translate(-31.75 -137.15)"/><ellipse class="cls-6" cx="95.51" cy="191.71" rx="1.43" ry="2.76" transform="translate(-80.89 -103.4) rotate(-16)"/><ellipse class="cls-6" cx="83.45" cy="187.57" rx="2.77" ry="0.83" transform="translate(-145.65 106.95) rotate(-82)"/></g><g id="Plumes"><path class="cls-7" d="M403.5,271.5s-55-11-63-30" transform="translate(-31.75 -137.15)"/><path class="cls-7" d="M415.5,295.5s-59-5-81-22" transform="translate(-31.75 -137.15)"/><path class="cls-7" d="M441.5,328.5s-34,5-101-30" transform="translate(-31.75 -137.15)"/><path class="cls-7" d="M452.5,166.5s-32,35-80,30" transform="translate(-31.75 -137.15)"/><path class="cls-7" d="M468.5,181.5s-20,24-81,27" transform="translate(-31.75 -137.15)"/><path class="cls-7" d="M446.5,216.5s-21,9-55,0" transform="translate(-31.75 -137.15)"/></g><g id="Pates"><path class="cls-3" d="M285.09,275.2s-11.59-3.7-13.59-3.7l-3.4-2.45,2.35-3.32,5.05-.23Z" transform="translate(-31.75 -137.15)"/><path class="cls-3" d="M210.5,281.5" transform="translate(-31.75 -137.15)"/><path class="cls-4" d="M305.44,298.76s-7.91,0-7.81,5.93l-1.13-8.19,8.69,1.93Z" transform="translate(-31.75 -137.15)"/><line class="cls-7" x1="273.75" y1="161.35" x2="273.44" y2="161.28"/><path class="cls-4" d="M287.5,311.5l-14.05-1.38a2,2,0,0,0,.81-.15c5,.11,8.73-.74,11.52-2.17Z" transform="translate(-31.75 -137.15)"/><line class="cls-7" x1="241.7" y1="172.97" x2="241.19" y2="172.92"/><path class="cls-4" d="M268.5,307.5l-11.33-3.34a12.4,12.4,0,0,0,7.44-1.54Z" transform="translate(-31.75 -137.15)"/><line class="cls-7" x1="225.42" y1="167.01" x2="225.41" y2="167.01"/><path class="cls-7" d="M256,269.5s-14,2-10.6,28.32" transform="translate(-31.75 -137.15)"/><polyline class="cls-4" points="214.55 162.75 215.75 165.35 213.41 164.37"/><path class="cls-4" d="M234.5,302.5l-12.59-8.37a28.51,28.51,0,0,0,8.63,1.7l.12.17Z" transform="translate(-31.75 -137.15)"/><path class="cls-7" d="M240,263.5s-22.7,14.13-9.46,32.33" transform="translate(-31.75 -137.15)"/><path class="cls-7" d="M266.44,302s-3.7-18,5.56-30" transform="translate(-31.75 -137.15)"/></g><g id="Dents"><line class="cls-7" x1="78.72" y1="86.67" x2="89.62" y2="98.53"/><line class="cls-7" x1="65.75" y1="93.35" x2="70.62" y2="101.94"/><line class="cls-7" x1="53.75" y1="93.35" x2="53.75" y2="97.35"/><line class="cls-7" x1="87.64" y1="76.25" x2="108.88" y2="80.91"/><line class="cls-7" x1="88.69" y1="66.54" x2="108.4" y2="59.26"/></g><g id="Sourcils"><path class="cls-8" d="M92.5,172.5s5,4,14-5" transform="translate(-31.75 -137.15)"/><path class="cls-8" d="M76.5,165.5s4-7,10,0" transform="translate(-31.75 -137.15)"/></g></svg>